# xmcd CD database file
#
# Track frame offsets:
#	150
#	14097
#	38070
#	69130
#	91445
#	111640
#	128557
#	151917
#	175675
#	196017
#
# Disc length: 2877 seconds
#
# Revision: 0
# Processed by: cddbd v1.5.2PL0 Copyright (c) Steve Scherf et al.
# Submitted via: CDex 1.51
#
DISCID=790b3b0a
DTITLE=Pascal von Wroblewski - Speak Low
DYEAR=1995
DGENRE=Jazz
TTITLE0=What are you doing the rest of your life
TTITLE1=Speak low
TTITLE2=Lush Life
TTITLE3=Well you needn't
TTITLE4='round midnight
TTITLE5=Very early
TTITLE6=Goodbye Pork Pie Hat
TTITLE7=Felicidade
TTITLE8=A night in Tunesia
TTITLE9=Stay well
EXTD=YEAR: 1995
EXTT0=
EXTT1=
EXTT2=
EXTT3=
EXTT4=
EXTT5=
EXTT6=
EXTT7=
EXTT8=
EXTT9=
PLAYORDER=
